<svg width="95" height="21" viewBox="0 0 95 21" fill="none" xmlns="http://www.w3.org/2000/svg">
<path d="M27.8888 7.65112L36.1309 7.65112L36.1309 9.15095L32.8857 9.15095L32.8857 17.6057L31.1069 17.6057L31.1069 9.15095L27.8752 9.15094L27.8888 7.65112ZM35.7779 10.3986L37.2986 10.3986L37.2986 11.7922L37.3258 11.7922C37.3801 11.5931 37.4752 11.4073 37.6109 11.2215C37.7467 11.0357 37.9097 10.8631 38.1133 10.7171C38.3034 10.5579 38.5207 10.4384 38.7651 10.3455C38.9959 10.2526 39.2403 10.1995 39.4848 10.1995C39.6749 10.1995 39.8106 10.2128 39.8785 10.2128C39.9464 10.226 40.0279 10.2393 40.0958 10.2393L40.0958 11.7657C39.9872 11.7391 39.865 11.7259 39.7427 11.7126C39.6205 11.6993 39.5119 11.686 39.3897 11.686C39.1181 11.686 38.8602 11.7391 38.6157 11.8453C38.3713 11.9515 38.1677 12.1108 37.9776 12.3099C37.801 12.5222 37.6517 12.7744 37.5431 13.0797C37.4344 13.385 37.3801 13.7433 37.3801 14.1415L37.3801 17.5659L35.7507 17.5659L35.7779 10.3986ZM47.5639 17.6057L45.9616 17.6057L45.9616 16.597L45.9345 16.597C45.7308 16.9686 45.4321 17.2473 45.0383 17.473C44.6445 17.6986 44.2372 17.8048 43.8298 17.8048C42.8658 17.8048 42.1597 17.5792 41.7252 17.1013C41.2907 16.6368 41.0734 15.9201 41.0734 14.9777L41.0734 10.3986L42.7028 10.3986L42.7028 14.8184C42.7028 15.4555 42.825 15.9068 43.083 16.159C43.3274 16.4244 43.6805 16.5572 44.1286 16.5572C44.468 16.5572 44.7532 16.5041 44.984 16.3979C45.2148 16.2917 45.4049 16.159 45.5407 15.9864C45.6901 15.8139 45.7851 15.6015 45.853 15.3626C45.9209 15.1237 45.9481 14.8582 45.9481 14.5795L45.9481 10.3986L47.5775 10.3986L47.5775 17.6057L47.5639 17.6057ZM50.3339 15.2962C50.3882 15.7608 50.5647 16.0793 50.877 16.2784C51.1893 16.4642 51.5695 16.5572 52.004 16.5572C52.1534 16.5572 52.3299 16.5439 52.52 16.5173C52.7101 16.4908 52.9002 16.451 53.0631 16.3846C53.2397 16.3182 53.3754 16.2253 53.4841 16.0926C53.5927 15.9599 53.647 15.8006 53.6334 15.6015C53.6199 15.4024 53.552 15.2299 53.4026 15.0971C53.2532 14.9644 53.0767 14.8715 52.8595 14.7786C52.6422 14.699 52.3842 14.6326 52.0991 14.5795C51.8139 14.5264 51.5288 14.4601 51.2301 14.3937C50.9313 14.3273 50.6326 14.2477 50.3475 14.1548C50.0623 14.0619 49.8179 13.9424 49.5871 13.7699C49.3698 13.6106 49.1797 13.4115 49.0575 13.1593C48.9217 12.9071 48.8538 12.6151 48.8538 12.2435C48.8538 11.8453 48.9489 11.5268 49.1526 11.2613C49.3427 10.9959 49.6007 10.7835 49.8994 10.6242C50.1981 10.465 50.5376 10.3455 50.9042 10.2791C51.2708 10.2128 51.6238 10.1862 51.9497 10.1862C52.3299 10.1862 52.6965 10.226 53.036 10.3057C53.3754 10.3853 53.7013 10.5048 53.9729 10.6906C54.258 10.8631 54.4889 11.102 54.6654 11.3808C54.8555 11.6595 54.9641 12.0046 55.0184 12.4028L53.3211 12.4028C53.2397 12.0179 53.0631 11.7657 52.7916 11.633C52.5064 11.5002 52.1941 11.4339 51.8275 11.4339C51.7189 11.4339 51.5695 11.4471 51.4202 11.4604C51.2572 11.487 51.1214 11.5135 50.9721 11.5666C50.8363 11.6197 50.7141 11.6993 50.619 11.7922C50.524 11.8851 50.4697 12.0179 50.4697 12.1771C50.4697 12.3762 50.5376 12.5222 50.6733 12.6417C50.8091 12.7611 50.9856 12.8541 51.2165 12.947C51.4337 13.0266 51.6917 13.093 51.9769 13.1461C52.262 13.1991 52.5607 13.2655 52.8595 13.3319C53.1582 13.3982 53.4433 13.4779 53.7285 13.5708C54.0136 13.6637 54.2716 13.7831 54.4889 13.9557C54.7061 14.115 54.8962 14.3141 55.032 14.553C55.1678 14.7919 55.2357 15.0971 55.2357 15.4422C55.2357 15.867 55.1406 16.2253 54.937 16.5306C54.7333 16.8226 54.4753 17.0748 54.163 17.2606C53.8507 17.4464 53.4841 17.5792 53.1039 17.6721C52.7101 17.7517 52.3299 17.8048 51.9497 17.8048C51.488 17.8048 51.0535 17.7517 50.6598 17.6455C50.266 17.5393 49.913 17.3801 49.6278 17.181C49.3427 16.9686 49.1118 16.7164 48.9489 16.3979C48.7859 16.0926 48.6909 15.721 48.6773 15.283L50.3203 15.283L50.3203 15.2962L50.3339 15.2962ZM55.6973 10.3986L56.933 10.3986L56.933 8.22185L58.5624 8.22185L58.5624 10.3853L60.0289 10.3853L60.0289 11.5666L58.5624 11.5666L58.5624 15.4157C58.5624 15.5882 58.576 15.721 58.5895 15.8537C58.6031 15.9732 58.6439 16.0793 58.6846 16.159C58.7389 16.2386 58.8204 16.305 58.9154 16.3448C59.0241 16.3846 59.1598 16.4112 59.3499 16.4112C59.4586 16.4112 59.5808 16.4112 59.6894 16.3979C59.798 16.3846 59.9202 16.3713 60.0289 16.3448L60.0289 17.5792C59.8523 17.6057 59.6758 17.619 59.4993 17.6322C59.3228 17.6588 59.1598 17.6588 58.9697 17.6588C58.5352 17.6588 58.1958 17.619 57.9378 17.5393C57.6798 17.4597 57.4761 17.3402 57.3268 17.1942C57.1774 17.035 57.0823 16.8492 57.028 16.6235C56.9737 16.3979 56.9466 16.1192 56.933 15.8272L56.933 11.5799L55.6973 11.5799L55.6973 10.372L55.6973 10.3986ZM61.1694 10.3986L62.7038 10.3986L62.7038 11.3808L62.7309 11.3808C62.9618 10.956 63.2741 10.664 63.6814 10.4782C64.0888 10.2924 64.5233 10.1995 65.0121 10.1995C65.596 10.1995 66.0984 10.2924 66.5329 10.5048C66.9674 10.7039 67.3204 10.9693 67.6056 11.3277C67.8907 11.6728 68.108 12.0842 68.2438 12.5488C68.3796 13.0133 68.461 13.5177 68.461 14.0353C68.461 14.5264 68.3931 14.991 68.2709 15.4422C68.1351 15.8935 67.945 16.305 67.6871 16.6501C67.4291 16.9952 67.1032 17.2739 66.6958 17.4862C66.2885 17.6986 65.8268 17.8048 65.2837 17.8048C65.0529 17.8048 64.8084 17.7783 64.5776 17.7384C64.3468 17.6986 64.1159 17.6323 63.8987 17.5393C63.6814 17.4464 63.4778 17.327 63.3012 17.181C63.1111 17.035 62.9618 16.8624 62.8396 16.6766L62.8124 16.6766L62.8124 20.2735L61.183 20.2735L61.183 10.3986L61.1694 10.3986ZM66.8588 14.0088C66.8588 13.6902 66.818 13.3717 66.723 13.0664C66.6415 12.7611 66.5057 12.4957 66.3292 12.2568C66.1527 12.0179 65.9354 11.832 65.691 11.686C65.433 11.54 65.1343 11.4737 64.8084 11.4737C64.1295 11.4737 63.6135 11.6993 63.2605 12.1639C62.921 12.6284 62.7445 13.2522 62.7445 14.0221C62.7445 14.3937 62.7853 14.7255 62.8803 15.0308C62.9754 15.3361 63.0976 15.6015 63.2877 15.8272C63.4642 16.0528 63.6814 16.2253 63.9394 16.3581C64.1974 16.4908 64.4826 16.5572 64.822 16.5572C65.2022 16.5572 65.5009 16.4775 65.7589 16.3315C66.0169 16.1855 66.2206 15.9864 66.3971 15.7608C66.5601 15.5219 66.6823 15.2564 66.7501 14.9512C66.818 14.6326 66.8588 14.3273 66.8588 14.0088V14.0088ZM69.7238 7.65113L71.3532 7.65113L71.3532 9.15095L69.7238 9.15095L69.7238 7.65113ZM69.7238 10.3986L71.3532 10.3986L71.3532 17.6057L69.7238 17.6057L69.7238 10.3986ZM72.8061 7.65113L74.4355 7.65113L74.4355 17.6057L72.8061 17.6057L72.8061 7.65113ZM79.4052 17.8048C78.8213 17.8048 78.2918 17.7119 77.8301 17.5128C77.3684 17.3137 76.9883 17.0615 76.6624 16.7297C76.3501 16.3979 76.1057 15.9864 75.9427 15.5219C75.7798 15.0573 75.6847 14.5397 75.6847 13.9955C75.6847 13.4513 75.7662 12.947 75.9427 12.4824C76.1057 12.0179 76.3501 11.6197 76.6624 11.2746C76.9747 10.9428 77.3684 10.6773 77.8301 10.4915C78.2918 10.3057 78.8213 10.1995 79.4052 10.1995C79.9891 10.1995 80.5186 10.2924 80.9803 10.4915C81.442 10.6773 81.8222 10.9428 82.148 11.2746C82.4603 11.6064 82.7047 12.0179 82.8677 12.4824C83.0306 12.947 83.1257 13.4513 83.1257 13.9955C83.1257 14.553 83.0442 15.0573 82.8677 15.5219C82.6912 15.9864 82.4603 16.3846 82.148 16.7297C81.8357 17.0615 81.442 17.327 80.9803 17.5128C80.5186 17.6986 80.0026 17.8048 79.4052 17.8048ZM79.4052 16.5439C79.7582 16.5439 80.0841 16.4642 80.3421 16.3182C80.6137 16.1722 80.8174 15.9732 80.9939 15.7342C81.1704 15.4953 81.2926 15.2166 81.3741 14.9246C81.4555 14.6193 81.4963 14.3141 81.4963 13.9955C81.4963 13.6902 81.4555 13.385 81.3741 13.0797C81.2926 12.7744 81.1704 12.509 80.9939 12.2701C80.8174 12.0311 80.6001 11.8453 80.3421 11.6993C80.0705 11.5533 79.7582 11.4737 79.4052 11.4737C79.0522 11.4737 78.7263 11.5533 78.4683 11.6993C78.1967 11.8453 77.9931 12.0444 77.8165 12.2701C77.64 12.509 77.5178 12.7744 77.4363 13.0797C77.3549 13.385 77.3141 13.6902 77.3141 13.9955C77.3141 14.3141 77.3549 14.6193 77.4363 14.9246C77.5178 15.2299 77.64 15.4953 77.8165 15.7342C77.9931 15.9732 78.2103 16.1722 78.4683 16.3182C78.7399 16.4775 79.0522 16.5439 79.4052 16.5439ZM83.6145 10.3986L84.8501 10.3986L84.8501 8.22186L86.4795 8.22186L86.4795 10.3853L87.946 10.3853L87.946 11.5666L86.4795 11.5666L86.4795 15.4157C86.4795 15.5882 86.4931 15.721 86.5067 15.8537C86.5203 15.9732 86.561 16.0793 86.6017 16.159C86.6561 16.2386 86.7375 16.305 86.8326 16.3448C86.9412 16.3846 87.077 16.4112 87.2671 16.4112C87.3757 16.4112 87.4979 16.4112 87.6065 16.3979C87.7152 16.3846 87.8374 16.3713 87.946 16.3448L87.946 17.5792C87.7695 17.6057 87.593 17.619 87.4164 17.6323C87.2399 17.6588 87.077 17.6588 86.8869 17.6588C86.4524 17.6588 86.1129 17.619 85.8549 17.5393C85.5969 17.4597 85.3933 17.3403 85.2439 17.1943C85.0945 17.035 84.9995 16.8492 84.9452 16.6235C84.8909 16.3979 84.8637 16.1192 84.8501 15.8272L84.8501 11.5799L83.6145 11.5799L83.6145 10.372L83.6145 10.3986Z" fill="white"/>
<path d="M25.988 7.65105L18.5334 7.65105L16.2387 0.722657L13.9304 7.65105L6.47583 7.63777L12.5046 11.9249L10.1963 18.8533L16.2251 14.5662L22.2539 18.8533L19.9592 11.9249L25.988 7.65105Z" fill="#1BB580"/>
<path d="M20.475 13.491L19.959 11.9248L16.2385 14.5661L20.475 13.491Z" fill="#3A7778"/>
</svg>
