<svg width="1561" height="474" viewBox="0 0 1561 474" fill="none" xmlns="http://www.w3.org/2000/svg">
<path fill-rule="evenodd" clip-rule="evenodd" d="M-116.445 0.0900879L-23.0537 25.7817L21.5344 163.012L52.7448 310.624L97.7013 273.294L108.176 308.193L123.153 283.316L149.909 309.371L179.892 261.586L197.035 300.743C201.625 294.224 206.548 287.521 211.673 280.93C226.255 262.18 246.665 238.739 268.349 226.481L319.077 197.806L328.271 255.348C330.673 270.375 330.797 294.881 323.755 322.151L331.459 323.498L366.006 290.553L371.939 299.04L395.121 278.314L407.233 302.058L415.406 292.839L432.786 316.006L453.873 294.22L472.29 313.189L519.353 278.085L524.129 286.16L555.484 259.728L558.826 276.141L560.686 274.214L584.031 307.158L614.412 280.971L632.111 322.947L656.217 314.805L662.062 282.005L708.638 306.413V277.274L781.268 325.067L802.111 296.217L812.646 311.809L836.192 282.209L854.762 318.893L860.582 325.326L885.833 303.826L903.273 318.438L917.559 304.077L927.236 308.373V271.551L949.283 288.037L957.683 277.788L975.629 307.738L1003.25 328.391L1017.83 315.941L1037.85 329.696L1042.09 326.264L1060.38 334.404L1091.64 291.988L1121.81 337.188L1142.88 325.128L1168.77 344.144H1228.09V278.772L1256.26 305.637V298.637L1288.94 314.028V250.271L1343.25 307.99L1363.35 276.973L1394.6 335.909L1412.14 331.063L1416.65 332.544L1448.7 288.685L1451.2 292.95V272.843L1461.71 281.656L1462.55 279.873L1471.47 289.842L1484.05 300.39C1492.52 279.994 1506.06 257.14 1527.77 240.954L1569.54 209.819L1585.15 247.633C1607.29 217.641 1636.24 185.904 1669.26 171.446L1721.69 148.492L1725.9 205.574C1726.1 208.364 1726.25 211.8 1726.3 215.751L1790.48 238.432L1801.83 396.182L1784.36 473.5H1008.24H993.5H980.525H-124.166L-116.445 0.0900879ZM1593.96 392.5H1719.62L1720.17 390.03L1713.81 301.597L1702.09 315.192L1658.09 285.626C1653.24 291.71 1648.27 298.392 1643.23 305.632C1622.14 335.961 1604.54 369.247 1595.04 390.134L1593.96 392.5ZM-12.7344 392.5L-39.7504 264.726L-41.8342 392.5H-12.7344Z" fill="#0C1011"/>
</svg>
